<svg xmlns="http://www.w3.org/2000/svg" version="1.1" xmlns:xlink="http://www.w3.org/1999/xlink" xmlns:svgjs="http://svgjs.dev/svgjs" width="1500" height="1500" viewBox="0 0 1500 1500"><rect width="1500" height="1500" fill="#ffffff"></rect><g transform="matrix(0.6666666666666666,0,0,0.6666666666666666,249.39393939393938,616.9529211068314)"><svg viewBox="0 0 396 105" data-background-color="#2979ff" preserveAspectRatio="xMidYMid meet" height="397" width="1500" xmlns="http://www.w3.org/2000/svg" xmlns:xlink="http://www.w3.org/1999/xlink"><g id="tight-bounds" transform="matrix(1,0,0,1,0.2400000000000091,0.2831610218490539)"><svg viewBox="0 0 395.52 104.43355620805272" height="104.43355620805272" width="395.52"><g><svg viewBox="0 0 532.7463901740034 140.6669702742566" height="104.43355620805272" width="395.52"><g transform="matrix(1,0,0,1,0,38.325600685131704)"><svg viewBox="0 0 395.52 64.0157689039932" height="64.0157689039932" width="395.52"><g id="textblocktransform"><svg viewBox="0 0 395.52 64.0157689039932" height="64.0157689039932" width="395.52" id="textblock"><g><svg viewBox="0 0 395.52 64.0157689039932" height="64.0157689039932" width="395.52"><g transform="matrix(1,0,0,1,0,0)"><svg width="395.52" viewBox="4 -36.01 287.33 46.51" height="64.0157689039932" data-palette-color="#ffffff"><path d="M26.49-14.99L9.5-14.99Q8.47-14.99 7.56-15.39 6.64-15.8 5.96-16.47 5.27-17.14 4.88-18.05 4.49-18.97 4.49-20L4.49-20 4.49-30Q4.49-31.03 4.88-31.95 5.27-32.86 5.96-33.53 6.64-34.2 7.56-34.61 8.47-35.01 9.5-35.01L9.5-35.01 26.49-35.01Q27.51-35.01 28.43-34.61 29.35-34.2 30.03-33.53 30.71-32.86 31.1-31.95 31.49-31.03 31.49-30L31.49-30 31.49-25.49 26.49-25.49 26.49-30 9.5-30 9.5-20 26.49-20Q27.51-20 28.43-19.6 29.35-19.21 30.03-18.53 30.71-17.85 31.1-16.93 31.49-16.02 31.49-14.99L31.49-14.99 31.49-5Q31.49-3.98 31.1-3.06 30.71-2.15 30.03-1.46 29.35-0.78 28.43-0.39 27.51 0 26.49 0L26.49 0 9.01 0Q7.98 0 7.07-0.39 6.15-0.78 5.47-1.46 4.79-2.15 4.39-3.06 4-3.98 4-5L4-5 4-9.5 9.01-9.5 9.01-5 26.49-5 26.49-14.99ZM63.01-21.19L63.01-4.81Q63.01-3.81 62.63-2.93 62.25-2.05 61.61-1.4 60.96-0.76 60.08-0.38 59.2 0 58.2 0L58.2 0 44.8 0 44.8 10.5 40.01 10.5 40.01-26 44.8-26 44.8-21.61Q44.87-22.53 45.29-23.33 45.7-24.12 46.34-24.72 46.97-25.32 47.81-25.66 48.65-26 49.61-26L49.61-26 58.2-26Q59.2-26 60.08-25.62 60.96-25.24 61.61-24.6 62.25-23.95 62.63-23.07 63.01-22.19 63.01-21.19L63.01-21.19ZM44.8-4.81L58.2-4.81 58.2-21.19 44.8-21.19 44.8-4.81ZM71.02-4.81L71.02-11.35Q71.02-12.35 71.39-13.22 71.77-14.09 72.42-14.75 73.07-15.41 73.95-15.78 74.82-16.16 75.8-16.16L75.8-16.16 88.2-16.16 88.2-21.19 72.5-21.19 72.5-26 88.2-26Q89.2-26 90.08-25.62 90.96-25.24 91.61-24.6 92.26-23.95 92.63-23.07 93.01-22.19 93.01-21.19L93.01-21.19 93.01 0 88.2 0 88.2-4.39Q88.13-3.49 87.71-2.69 87.3-1.88 86.65-1.28 86.01-0.68 85.18-0.34 84.35 0 83.42 0L83.42 0 75.8 0Q74.82 0 73.95-0.38 73.07-0.76 72.42-1.4 71.77-2.05 71.39-2.93 71.02-3.81 71.02-4.81L71.02-4.81ZM75.8-11.35L75.8-4.81 88.2-4.81 88.2-11.35 75.8-11.35ZM99.5-21.19L99.5-26 105.85-26 105.85-34.01 110.66-34.01 110.66-26 119.21-26 119.21-21.19 110.66-21.19 110.66-4.81 119.21-4.81 119.21 0 110.66 0Q109.68 0 108.81-0.38 107.93-0.76 107.27-1.4 106.61-2.05 106.23-2.93 105.85-3.81 105.85-4.81L105.85-4.81 105.85-21.19 99.5-21.19ZM127.46-26L132.27-26 132.27 0 127.46 0 127.46-26ZM127.21-31.01L127.21-36.01 132.51-36.01 132.51-31.01 127.21-31.01ZM140.51-4.81L140.51-11.35Q140.51-12.35 140.89-13.22 141.27-14.09 141.92-14.75 142.57-15.41 143.44-15.78 144.32-16.16 145.3-16.16L145.3-16.16 157.7-16.16 157.7-21.19 142-21.19 142-26 157.7-26Q158.7-26 159.58-25.62 160.46-25.24 161.11-24.6 161.76-23.95 162.13-23.07 162.51-22.19 162.51-21.19L162.51-21.19 162.51 0 157.7 0 157.7-4.39Q157.63-3.49 157.21-2.69 156.8-1.88 156.15-1.28 155.51-0.68 154.68-0.34 153.84 0 152.92 0L152.92 0 145.3 0Q144.32 0 143.44-0.38 142.57-0.76 141.92-1.4 141.27-2.05 140.89-2.93 140.51-3.81 140.51-4.81L140.51-4.81ZM145.3-11.35L145.3-4.81 157.7-4.81 157.7-11.35 145.3-11.35ZM170.52-36.01L175.3-36.01 175.3 0 170.52 0 170.52-36.01ZM223.83-35.01L228.84-35.01 228.84 0 223.83 0 223.83-14.99 203.79-14.99 203.79 0 198.78 0 198.78-35.01 203.79-35.01 203.79-20 223.83-20 223.83-35.01ZM237.33-4.81L237.33-26 242.12-26 242.12-4.81 255.52-4.81 255.52-26 260.33-26 260.33 0 255.52 0 255.52-4.39Q255.45-3.49 255.03-2.69 254.62-1.88 253.97-1.28 253.32-0.68 252.49-0.34 251.66 0 250.73 0L250.73 0 242.12 0Q241.14 0 240.26-0.38 239.38-0.76 238.73-1.4 238.09-2.05 237.71-2.93 237.33-3.81 237.33-4.81L237.33-4.81ZM291.33-21.19L291.33-4.81Q291.33-3.81 290.95-2.93 290.58-2.05 289.93-1.4 289.28-0.76 288.4-0.38 287.52 0 286.52 0L286.52 0 273.12 0Q272.14 0 271.26-0.38 270.39-0.76 269.74-1.4 269.09-2.05 268.71-2.93 268.33-3.81 268.33-4.81L268.33-4.81 268.33-36.01 273.12-36.01 273.12-21.41Q273.17-22.36 273.56-23.21 273.95-24.05 274.6-24.67 275.24-25.29 276.1-25.65 276.95-26 277.93-26L277.93-26 286.52-26Q287.52-26 288.4-25.62 289.28-25.24 289.93-24.6 290.58-23.95 290.95-23.07 291.33-22.19 291.33-21.19L291.33-21.19ZM286.52-21.19L273.12-21.19 273.12-4.81 286.52-4.81 286.52-21.19Z" opacity="1" transform="matrix(1,0,0,1,0,0)" fill="#000000" class="wordmark-text-0" data-fill-palette-color="primary" id="text-0"></path></svg></g></svg></g></svg></g></svg></g><g transform="matrix(1,0,0,1,410.63258665977907,0)"><svg viewBox="0 0 122.11380351422439 140.6669702742566" height="140.6669702742566" width="122.11380351422439"><g><svg xmlns="http://www.w3.org/2000/svg" xmlns:xlink="http://www.w3.org/1999/xlink" version="1.1" x="0" y="0" viewBox="8.632 1.902 82.88499999999999 95.47800081277168" enable-background="new 0 0 100 100" xml:space="preserve" height="140.6669702742566" width="122.11380351422439" class="icon-icon-0" data-fill-palette-color="accent" id="icon-0"><path d="M91.517 26.138C91.517 26.129 91.514 26.122 91.514 26.114 91.513 26.088 91.51 26.062 91.507 26.036 91.503 26.013 91.5 25.99 91.495 25.969 91.489 25.946 91.481 25.923 91.474 25.901A0.6 0.6 0 0 0 91.416 25.772C91.404 25.752 91.393 25.731 91.379 25.712 91.366 25.692 91.35 25.675 91.334 25.657 91.317 25.639 91.303 25.621 91.285 25.604L91.233 25.561C91.212 25.545 91.191 25.529 91.169 25.515 91.161 25.511 91.156 25.505 91.148 25.501L50.442 1.998 50.42 1.988C50.397 1.975 50.373 1.966 50.349 1.955A0.6 0.6 0 0 0 50.216 1.916L50.143 1.904C50.12 1.902 50.098 1.902 50.075 1.902S50.027 1.902 50.003 1.904 49.957 1.911 49.934 1.916A0.6 0.6 0 0 0 49.727 1.988C49.72 1.991 49.712 1.993 49.705 1.998L8.999 25.499 8.979 25.513 8.915 25.559C8.897 25.573 8.879 25.587 8.863 25.602L8.814 25.655C8.799 25.673 8.783 25.69 8.769 25.71S8.744 25.75 8.732 25.77C8.721 25.791 8.709 25.811 8.699 25.832S8.682 25.876 8.674 25.899 8.658 25.944 8.653 25.967L8.642 26.034 8.634 26.112 8.632 26.136V73.139L8.634 73.163 8.642 73.241C8.645 73.264 8.648 73.287 8.653 73.308 8.658 73.331 8.666 73.353 8.674 73.375S8.689 73.421 8.699 73.443C8.709 73.464 8.721 73.484 8.732 73.505S8.755 73.546 8.769 73.566 8.799 73.603 8.814 73.621L8.863 73.674C8.879 73.69 8.898 73.703 8.915 73.717L8.979 73.764 8.999 73.778 49.704 97.28 49.706 97.281C49.726 97.294 49.748 97.302 49.769 97.313L49.794 97.324C49.803 97.329 49.813 97.331 49.823 97.335A0.7 0.7 0 0 0 50.071 97.38H50.073A0.7 0.7 0 0 0 50.315 97.337C50.327 97.333 50.339 97.33 50.35 97.324L50.373 97.314C50.395 97.303 50.417 97.293 50.438 97.281L50.44 97.28 91.145 73.779C91.153 73.775 91.158 73.769 91.166 73.765L91.23 73.718C91.248 73.704 91.265 73.691 91.282 73.675 91.3 73.658 91.314 73.641 91.331 73.622 91.347 73.603 91.363 73.587 91.376 73.567 91.39 73.547 91.401 73.527 91.413 73.506S91.437 73.466 91.446 73.444A0.4 0.4 0 0 0 91.471 73.376C91.479 73.354 91.487 73.332 91.492 73.309 91.497 73.288 91.5 73.265 91.504 73.242L91.511 73.164C91.511 73.155 91.514 73.148 91.514 73.14V26.138zM50.073 95.79L10.566 72.981 48.029 51.351 49.797 54.413V80.249H46.003L45.994 80.25A0.3 0.3 0 0 0 45.939 80.256L45.915 80.265 45.889 80.275 45.867 80.287 45.844 80.302 45.824 80.319 45.804 80.337 45.788 80.357 45.77 80.381 45.765 80.389 45.759 80.403 45.747 80.43 45.739 80.455 45.733 80.481 45.731 80.511 45.73 80.526V80.536C45.73 80.547 45.732 80.556 45.733 80.565L45.737 80.59 45.745 80.615C45.748 80.623 45.751 80.633 45.755 80.64 45.758 80.648 45.763 80.656 45.767 80.663L45.781 80.685 45.799 80.706 45.817 80.726 45.837 80.742 45.861 80.761 45.868 80.765 49.939 83.117H49.94L49.952 83.122C49.966 83.13 49.981 83.135 49.996 83.141L50.013 83.146C50.033 83.151 50.054 83.155 50.075 83.155H50.08A0.3 0.3 0 0 0 50.142 83.146L50.159 83.141C50.175 83.135 50.189 83.13 50.203 83.122L50.215 83.117 54.285 80.765C54.288 80.765 54.29 80.763 54.293 80.761L54.316 80.742 54.337 80.726 54.356 80.706 54.373 80.685 54.387 80.663 54.4 80.64C54.404 80.632 54.406 80.622 54.409 80.615L54.418 80.59 54.422 80.565 54.426 80.536V80.526L54.425 80.511 54.422 80.481 54.415 80.455 54.408 80.43 54.395 80.403 54.388 80.389 54.382 80.381C54.378 80.373 54.371 80.365 54.365 80.357L54.349 80.338 54.328 80.319 54.308 80.302 54.284 80.287 54.262 80.275 54.236 80.265 54.212 80.256 54.187 80.252 54.159 80.25 54.149 80.249H50.35V54.413L52.118 51.351 89.582 72.981zM90.042 72.183L52.578 50.554 54.347 47.492 76.72 34.574 78.616 37.86C78.618 37.862 78.62 37.863 78.621 37.866 78.634 37.885 78.645 37.903 78.662 37.918L78.668 37.923 78.713 37.957 78.731 37.967 78.776 37.985 78.793 37.991A0.3 0.3 0 0 0 78.856 37.999H78.859A0.3 0.3 0 0 0 78.921 37.991C78.927 37.99 78.932 37.987 78.938 37.985A0.2 0.2 0 0 0 78.985 37.966L78.996 37.962 79.003 37.957 79.026 37.939C79.033 37.934 79.041 37.929 79.047 37.923L79.065 37.903 79.083 37.882 79.098 37.86 79.11 37.837 79.12 37.812 79.128 37.787 79.132 37.762 79.135 37.732 79.136 37.723V33.022L79.135 33.013 79.134 32.996 79.131 32.977 79.128 32.959 79.124 32.943 79.117 32.925 79.11 32.908 79.102 32.892 79.098 32.884 79.093 32.876 79.083 32.861 79.071 32.846 79.058 32.832 79.047 32.821 79.032 32.809 79.017 32.797 79.002 32.787 78.995 32.782 74.924 30.432 74.915 30.428 74.889 30.416 74.865 30.407C74.857 30.404 74.848 30.403 74.84 30.401L74.813 30.397 74.787 30.396 74.762 30.397C74.752 30.397 74.742 30.399 74.735 30.401L74.71 30.407 74.685 30.416C74.676 30.42 74.667 30.423 74.66 30.428L74.65 30.432 74.637 30.441 74.615 30.458A0.1 0.1 0 0 0 74.594 30.477L74.576 30.496 74.558 30.52 74.549 30.533 74.546 30.542 74.533 30.568 74.523 30.592C74.52 30.601 74.52 30.609 74.518 30.618L74.513 30.644V30.696L74.518 30.723C74.52 30.732 74.52 30.74 74.523 30.749L74.533 30.773 74.549 30.808 76.446 34.094 54.069 47.012H50.534V3.754L90.042 26.564zM49.612 3.754V47.012H46.076L23.703 34.095 25.6 30.809 25.603 30.801 25.615 30.774 25.624 30.75 25.63 30.724 25.634 30.698 25.635 30.671 25.634 30.645 25.629 30.618 25.624 30.593 25.615 30.569 25.603 30.543 25.6 30.534 25.591 30.521 25.573 30.497 25.555 30.478 25.535 30.46 25.511 30.443 25.498 30.434 25.489 30.43 25.463 30.418 25.438 30.409 25.414 30.403 25.386 30.399 25.361 30.398 25.333 30.399 25.307 30.403C25.298 30.405 25.289 30.406 25.281 30.409L25.257 30.418C25.248 30.422 25.239 30.425 25.231 30.43L25.222 30.434 21.151 32.784 21.144 32.789 21.129 32.799 21.115 32.81 21.1 32.823 21.089 32.834 21.076 32.848 21.064 32.863 21.054 32.878 21.049 32.886 21.045 32.894 21.037 32.91 21.03 32.928 21.024 32.946 21.02 32.962 21.017 32.98 21.015 32.999 21.014 33.016 21.013 33.025V37.726L21.014 37.735C21.014 37.745 21.015 37.754 21.017 37.764L21.021 37.789 21.029 37.814C21.032 37.823 21.035 37.832 21.039 37.839L21.052 37.862 21.066 37.884 21.083 37.905 21.101 37.924 21.121 37.941 21.145 37.959 21.152 37.964 21.163 37.968C21.178 37.976 21.193 37.982 21.209 37.987L21.226 37.993A0.4 0.4 0 0 0 21.288 38.001H21.291A0.3 0.3 0 0 0 21.355 37.993C21.361 37.992 21.366 37.989 21.372 37.987A0.2 0.2 0 0 0 21.417 37.969L21.434 37.959A0.3 0.3 0 0 0 21.479 37.925L21.485 37.92A0.3 0.3 0 0 0 21.526 37.868L21.53 37.862 23.427 34.576 45.8 47.491 47.568 50.553 10.105 72.183V26.563z" fill="#000000" data-fill-palette-color="accent"></path></svg></g></svg></g></svg></g><defs></defs></svg><rect width="395.52" height="104.43355620805272" fill="none" stroke="none" visibility="hidden"></rect></g></svg></g></svg>